<?xml version="1.0" standalone="no"?>
<!DOCTYPE svg PUBLIC "-//W3C//DTD SVG 20010904//EN"
 "http://www.w3.org/TR/2001/REC-SVG-20010904/DTD/svg10.dtd">
<svg version="1.0" xmlns="http://www.w3.org/2000/svg"
 width="114.000000pt" height="114.000000pt" viewBox="0 0 114.000000 114.000000"
 preserveAspectRatio="xMidYMid meet">
<metadata>
Created by potrace 1.11, written by Peter Selinger 2001-2013
</metadata>
<g transform="translate(0.000000,114.000000) scale(0.100000,-0.100000)"
fill="#000000" stroke="none">
<path d="M530 1016 c-128 -36 -248 -136 -301 -249 -16 -35 -32 -75 -35 -88
-11 -46 -12 -155 -3 -204 31 -165 173 -317 335 -359 67 -18 180 -18 245 -1 51
14 158 69 171 89 4 6 8 46 8 88 l0 77 -46 -49 c-65 -69 -137 -103 -228 -106
-40 -2 -92 2 -117 8 -56 14 -134 64 -176 111 -170 194 -82 497 166 571 47 14
112 15 231 3 26 -2 27 3 21 89 -2 29 -190 43 -271 20z"/>
<path d="M840 1005 c-1 -3 -1 -50 -1 -105 0 -55 0 -111 1 -125 0 -24 3 -25 55
-25 l55 0 0 130 0 130 -55 0 c-30 0 -55 -2 -55 -5z"/>
<path d="M570 801 c-148 -45 -224 -202 -166 -341 18 -44 76 -103 125 -127 54
-27 173 -24 229 5 40 21 42 25 42 66 l0 44 -28 -28 c-51 -50 -140 -63 -214
-31 -77 33 -120 104 -113 189 9 109 104 180 227 170 47 -5 48 -4 48 23 0 19
-6 28 -22 33 -30 8 -97 6 -128 -3z"/>
<path d="M740 740 l0 -70 33 0 32 0 -2 52 c-1 29 -2 61 -2 71 -1 12 -9 17 -31
17 l-30 0 0 -70z"/>
</g>
</svg>
