<?xml version="1.0" standalone="no"?>
<!DOCTYPE svg PUBLIC "-//W3C//DTD SVG 20010904//EN"
 "http://www.w3.org/TR/2001/REC-SVG-20010904/DTD/svg10.dtd">
<svg version="1.0" xmlns="http://www.w3.org/2000/svg"
 width="200.000000pt" height="200.000000pt" viewBox="0 0 200.000000 200.000000"
 preserveAspectRatio="xMidYMid meet">
<metadata>
Created by potrace 1.11, written by Peter Selinger 2001-2013
</metadata>
<g transform="translate(0.000000,200.000000) scale(0.100000,-0.100000)"
fill="#000000" stroke="none">
<path d="M540 1925 c-171 -42 -327 -157 -389 -288 -114 -243 -32 -504 195
-623 36 -19 74 -34 84 -34 29 0 32 -15 15 -81 -9 -34 -22 -100 -28 -147 l-13
-85 -74 -24 c-87 -27 -158 -62 -165 -80 -7 -19 23 -16 53 5 31 21 62 33 147
58 71 21 329 29 414 13 29 -6 55 -8 57 -6 2 2 20 58 39 123 69 238 65 230 104
244 204 71 386 275 434 485 7 33 11 74 8 90 -12 63 -92 37 -201 -67 -124 -117
-208 -247 -265 -411 -30 -89 -32 -92 -69 -100 -20 -5 -39 -7 -41 -5 -7 6 49
156 88 235 67 138 160 277 232 347 95 92 271 152 360 123 72 -24 81 -57 37
-139 -61 -112 -80 -225 -49 -285 36 -69 142 -126 231 -125 56 1 74 24 68 90
-6 72 19 144 83 241 95 143 70 187 -132 231 -466 100 -853 -15 -1104 -328 -49
-61 -134 -224 -164 -314 l-26 -77 -41 15 c-45 16 -131 64 -164 92 -102 87
-156 258 -129 412 23 134 128 266 266 333 107 52 163 66 276 65 81 0 115 -6
182 -28 67 -23 81 -25 79 -12 -2 9 -32 25 -73 39 -86 30 -241 38 -325 18z
m853 -348 c16 -43 -18 -157 -79 -261 -65 -111 -152 -195 -260 -252 -49 -25
-90 -42 -92 -36 -4 13 52 153 95 234 57 108 201 264 288 311 37 20 42 20 48 4z
m-502 -670 c-12 -35 -24 -72 -26 -83 -32 -128 -44 -159 -59 -158 -58 3 -56 -7
-21 132 18 70 36 135 40 144 6 14 73 40 84 32 1 -2 -7 -31 -18 -67z"/>
<path d="M1557 1036 c-24 -12 -51 -37 -69 -65 -26 -40 -29 -53 -25 -100 3 -47
9 -59 40 -88 32 -29 41 -32 78 -28 57 7 123 55 142 102 28 72 30 99 8 141 -32
63 -97 77 -174 38z"/>
<path d="M1413 668 c-6 -7 -13 -39 -17 -71 -8 -73 -26 -117 -100 -247 -78
-137 -138 -196 -233 -232 -76 -29 -151 -37 -195 -20 -104 42 -163 218 -134
405 6 38 11 47 23 43 8 -3 20 -6 27 -6 10 0 13 -23 13 -87 0 -95 6 -154 21
-193 15 -38 25 -3 14 46 -5 21 -8 87 -7 145 l2 107 -56 12 c-148 30 -431 2
-540 -55 -72 -37 -142 -130 -166 -220 -19 -75 -19 -119 0 -135 13 -11 15 -5
15 42 0 77 24 149 70 207 48 61 105 95 188 115 l62 14 0 -39 c0 -92 73 -238
158 -317 54 -50 162 -105 242 -122 30 -7 120 -14 200 -16 169 -3 249 13 364
74 135 72 268 236 279 344 5 45 -20 105 -59 142 -56 53 -151 89 -171 64z"/>
</g>
</svg>
