<?xml version="1.0" standalone="no"?>
<!DOCTYPE svg PUBLIC "-//W3C//DTD SVG 20010904//EN"
 "http://www.w3.org/TR/2001/REC-SVG-20010904/DTD/svg10.dtd">
<svg version="1.0" xmlns="http://www.w3.org/2000/svg"
 width="114.000000pt" height="114.000000pt" viewBox="0 0 114.000000 114.000000"
 preserveAspectRatio="xMidYMid meet">
<metadata>
Created by potrace 1.11, written by Peter Selinger 2001-2013
</metadata>
<g transform="translate(0.000000,114.000000) scale(0.100000,-0.100000)"
fill="#000000" stroke="none">
<path d="M46 1124 c-10 -26 -7 -134 4 -134 6 0 10 6 10 13 0 8 18 42 40 75
l40 62 -44 0 c-31 0 -46 -5 -50 -16z"/>
<path d="M194 1098 c-22 -24 -54 -67 -73 -95 -18 -29 -37 -53 -41 -53 -4 0
-16 -19 -25 -42 -20 -49 -20 -49 -39 47 -13 67 -14 57 -15 -209 l-1 -279 27
-46 c14 -25 48 -79 75 -119 67 -99 56 -114 -45 -63 l-57 30 0 -23 c0 -19 19
-34 103 -81 56 -31 93 -54 83 -51 -21 7 -141 25 -168 26 -15 0 -18 -9 -18 -54
l0 -55 32 10 c18 5 46 9 63 9 29 0 28 -1 -15 -23 -43 -21 -44 -22 -18 -25 15
-2 36 2 47 7 26 14 54 14 45 0 -7 -11 116 -8 196 5 26 5 30 4 15 -3 -14 -7 8
-10 75 -10 52 1 88 3 80 6 -147 50 -289 173 -358 312 -52 104 -66 171 -59 296
6 114 35 211 91 303 40 65 145 172 194 196 17 9 32 19 32 21 0 3 -19 5 -41 5
-38 0 -47 -6 -119 -77 -44 -46 -92 -106 -114 -145 -21 -38 -39 -68 -41 -68 -2
0 2 17 9 38 7 20 11 42 9 49 -6 18 32 86 82 148 53 65 45 74 -11 13z"/>
<path d="M487 1095 c-52 -14 -81 -32 -33 -21 51 12 93 17 73 8 -14 -6 -2 -11
48 -21 58 -12 69 -12 82 1 13 13 13 17 -2 32 -20 20 -98 20 -168 1z"/>
<path d="M414 998 c19 -11 19 -11 1 -24 -17 -13 -16 -14 12 -14 37 0 58 21 41
38 -7 7 -26 12 -42 12 -28 -1 -29 -2 -12 -12z"/>
<path d="M270 900 c19 -13 30 -13 30 0 0 6 -10 10 -22 10 -19 0 -20 -2 -8 -10z"/>
<path d="M0 349 c1 -42 3 -46 57 -82 64 -44 80 -41 36 6 -17 17 -45 52 -62 76
l-31 44 0 -44z"/>
<path d="M1072 233 c-7 -3 -26 -33 -42 -67 -24 -50 -25 -56 -7 -32 63 84 84
93 46 21 l-21 -40 31 31 c49 47 44 108 -7 87z"/>
<path d="M0 181 c0 -10 25 -21 48 -21 12 1 10 5 -8 15 -29 17 -40 18 -40 6z"/>
<path d="M891 128 c-6 -7 -23 -30 -36 -51 l-25 -38 31 18 c40 23 66 60 52 74
-7 7 -14 6 -22 -3z"/>
</g>
</svg>
