<?xml version="1.0" standalone="no"?>
<!DOCTYPE svg PUBLIC "-//W3C//DTD SVG 20010904//EN"
 "http://www.w3.org/TR/2001/REC-SVG-20010904/DTD/svg10.dtd">
<svg version="1.0" xmlns="http://www.w3.org/2000/svg"
 width="114.000000pt" height="114.000000pt" viewBox="0 0 114.000000 114.000000"
 preserveAspectRatio="xMidYMid meet">
<metadata>
Created by potrace 1.11, written by Peter Selinger 2001-2013
</metadata>
<g transform="translate(0.000000,114.000000) scale(0.100000,-0.100000)"
fill="#000000" stroke="none">
<path d="M0 570 l0 -570 272 0 c149 0 269 3 266 6 -4 3 -13 6 -21 8 -38 5
-167 80 -212 123 -137 130 -195 251 -200 418 -4 119 10 190 41 204 13 6 35 16
49 23 32 15 22 29 -15 21 -24 -4 -30 -2 -30 12 0 28 58 129 99 173 21 23 36
44 33 47 -3 3 0 5 6 5 6 0 26 14 44 30 18 17 38 30 45 30 7 0 13 5 13 10 0 6
7 10 15 10 8 0 15 5 15 10 0 6 -77 10 -210 10 l-210 0 0 -570z"/>
<path d="M560 1113 c-65 -8 -150 -36 -150 -49 0 -11 5 -12 18 -5 21 11 137 7
172 -7 27 -10 70 1 70 18 0 30 -52 50 -110 43z"/>
<path d="M359 1043 c-13 -16 -12 -17 4 -4 9 7 17 15 17 17 0 8 -8 3 -21 -13z"/>
<path d="M395 1010 c-41 -9 -105 -40 -105 -51 0 -6 7 -6 18 -1 16 8 45 9 102
1 34 -4 70 9 70 26 0 18 -49 33 -85 25z"/>
<path d="M535 917 c-174 -45 -296 -211 -290 -394 4 -117 41 -198 124 -276 59
-55 108 -81 185 -97 107 -22 222 1 309 62 25 18 27 25 27 85 l0 66 -49 -46
c-58 -55 -103 -75 -177 -81 -264 -19 -423 278 -261 487 73 94 172 124 341 104
16 -2 20 5 21 36 1 21 -4 42 -12 48 -19 17 -161 20 -218 6z"/>
<path d="M250 903 c-28 -20 -39 -30 -60 -58 -13 -18 -12 -18 10 1 14 12 41 25
60 29 35 8 53 22 44 37 -8 13 -28 9 -54 -9z"/>
<path d="M795 803 l1 -108 47 -3 47 -3 0 110 0 111 -48 0 -47 0 0 -107z"/>
<path d="M608 745 c-2 -2 -15 -6 -30 -9 -62 -11 -126 -65 -154 -131 -21 -49
-11 -138 20 -185 59 -89 174 -124 269 -82 26 12 47 25 48 29 0 4 2 20 4 35 l4
27 -41 -27 c-141 -93 -316 42 -249 192 27 63 71 90 153 94 58 4 68 7 68 23 0
18 -7 21 -72 34 -9 1 -18 1 -20 0z"/>
<path d="M729 743 c-11 -3 -15 -18 -17 -58 0 -30 3 -56 8 -56 44 -6 44 -5 46
49 1 54 -9 71 -37 65z"/>
<path d="M1074 238 c-12 -5 -32 -33 -45 -60 -27 -57 -68 -104 -119 -136 -34
-21 -36 -32 -2 -12 17 10 75 32 80 30 1 0 8 4 15 10 46 39 61 50 69 50 5 0 7
4 4 9 -3 5 0 11 8 14 8 3 21 19 29 36 14 28 14 33 -1 50 -14 15 -21 17 -38 9z"/>
<path d="M861 97 c-16 -24 -40 -51 -53 -61 l-23 -17 25 7 c14 4 28 11 31 16 3
5 10 9 14 8 4 -1 23 12 41 30 27 25 32 35 23 46 -18 21 -26 17 -58 -29z"/>
</g>
</svg>
